<?xml version="1.0" encoding="UTF-8"?>
<!-- Generator: visioncortex VTracer 0.6.3 -->
<svg version="1.1" xmlns="http://www.w3.org/2000/svg" width="1280" height="1280">
<path d="M0 0 C1.25 0.13 2.5 0.26 3.79 0.39 C11.8 1.27 19.11 2.65 26.82 5.1 C30.04 6.09 30.04 6.09 33.61 6.49 C36.75 6.96 38.88 7.66 41.69 9.06 C44.97 10.7 46.14 11 50 11 C50 11.66 50 12.32 50 13 C54.3 14.47 58.62 15.77 63 17 C63 17.66 63 18.32 63 19 C63.68 19.1 64.36 19.21 65.06 19.31 C70.15 20.5 74.44 22.12 78 26 C79.64 27.04 81.31 28.04 83 29 C89.25 32.66 89.25 32.66 92 35 C92 35.66 92 36.32 92 37 C92.74 37.09 93.49 37.17 94.25 37.26 C97.54 38.15 98.67 39.32 100.94 41.81 C103.3 44.31 105.24 46.16 108.12 48.06 C111.27 50.18 113.33 52.49 115.7 55.41 C117.33 57.41 118.68 58.84 121 60 C121.66 60.99 122.32 61.98 123 63 C123.66 63.66 124.32 64.32 125 65 C125.96 66.12 126.92 67.24 127.88 68.38 C129.59 70.39 131.28 72.28 133.19 74.12 C135.24 76.24 136.51 78.46 138 81 C138.7 81.85 139.4 82.69 140.12 83.56 C141.92 85.9 142.4 87.2 143 90 C143.66 90.33 144.32 90.66 145 91 C145.71 92.62 146.41 94.25 147.07 95.89 C148.46 99.04 150.24 101.94 152.01 104.89 C153 107 153 107 153 111 C153.66 111 154.32 111 155 111 C155.33 112.98 155.66 114.96 156 117 C156.66 117 157.32 117 158 117 C159.55 119.65 160.35 122.22 161.06 125.19 C161.59 128.77 161.59 128.77 163 130 C163.04 132 163.04 134 163 136 C163.66 136 164.32 136 165 136 C166.36 142.52 167.52 149.05 168.54 155.63 C168.76 157.95 168.76 157.95 170 159 C170.16 160.94 170.25 162.89 170.32 164.84 C170.36 166.06 170.4 167.28 170.44 168.54 C170.5 170.5 170.5 170.5 170.56 172.5 C170.6 173.81 170.65 175.13 170.69 176.48 C170.98 185.99 171.12 195.49 171 205 C170.34 205.33 169.68 205.66 169 206 C167.72 211.03 168 215.98 168.12 221.12 C168.24 228.82 167.47 235.65 165 243 C164.67 243 164.34 243 164 243 C163.71 244.07 163.42 245.14 163.12 246.25 C162.27 249.09 161.44 251.44 160 254 C159.34 254 158.68 254 158 254 C158 256.31 158 258.62 158 261 C157.34 261 156.68 261 156 261 C155.89 261.68 155.78 262.35 155.67 263.05 C155.51 263.94 155.35 264.83 155.19 265.75 C155.04 266.63 154.89 267.51 154.73 268.42 C153.95 271.19 152.85 272.83 151 275 C143.95 274.33 143.95 274.33 141 271 C139.97 270.48 138.94 269.97 137.88 269.44 C135 268 135 268 134 266 C131.98 265.35 131.98 265.35 130 265 C130 264.34 130 263.68 130 263 C129.01 262.67 128.02 262.34 127 262 C127 261.34 127 260.68 127 260 C126.07 259.92 125.14 259.84 124.19 259.75 C120.45 258.87 120.09 258.03 118 255 C115.91 254.2 115.91 254.2 114 254 C114 253.34 114 252.68 114 252 C113.05 251.92 112.1 251.84 111.12 251.75 C109.58 251.38 109.58 251.38 108 251 C107.3 249.68 106.63 248.35 106 247 C105.17 246.84 104.35 246.67 103.5 246.5 C102.67 246.34 101.85 246.17 101 246 C100.54 245.01 100.54 245.01 100.06 244 C99.71 243.34 99.36 242.68 99 242 C97 241.65 95 241.31 93 241 C91.3 239.71 89.63 238.38 88 237 C87.11 236.65 86.23 236.3 85.31 235.94 C83 235 83 235 81 232 C78.7 230.93 76.37 229.92 74 229 C74.33 228.01 74.66 227.02 75 226 C73.68 226 72.36 226 71 226 C71 225.34 71 224.68 71 224 C69.58 223.85 69.58 223.85 68.12 223.69 C65 223 65 223 63 220 C62.99 216.9 62.99 216.9 63.31 213.38 C63.46 211.62 63.46 211.62 63.61 209.84 C64 207 64 207 65 206 C68.12 189.02 67.26 168.35 59 153 C59 152.34 59 151.68 59 151 C58.34 151 57.68 151 57 151 C56.75 150.11 56.5 149.23 56.25 148.31 C54.94 144.85 53.34 142.84 51 140 C50.59 139.05 50.17 138.1 49.75 137.12 C47.67 133.41 45.18 131.36 41.93 128.67 C39.63 126.68 37.86 124.41 36 122 C35.01 121.34 34.02 120.68 33 120 C33.33 119.67 33.66 119.34 34 119 C33.24 118.9 32.47 118.79 31.69 118.69 C28.76 117.94 27.98 117.17 26 115 C25.01 114.67 24.02 114.34 23 114 C22.67 113.34 22.34 112.68 22 112 C19.68 111.59 17.34 111.26 15 111 C15 110.34 15 109.68 15 109 C13.76 108.9 12.52 108.79 11.25 108.69 C4.87 107.99 -2.22 106.89 -8 104 C-10.52 103.9 -13.01 103.87 -15.53 103.88 C-16.32 103.88 -17.1 103.88 -17.91 103.88 C-20.56 103.88 -23.2 103.88 -25.85 103.89 C-27.74 103.89 -29.64 103.89 -31.53 103.89 C-36.68 103.89 -41.82 103.89 -46.97 103.9 C-52.35 103.9 -57.72 103.91 -63.1 103.91 C-73.29 103.91 -83.47 103.92 -93.66 103.93 C-105.25 103.94 -116.84 103.94 -128.44 103.95 C-152.29 103.96 -176.15 103.98 -200 104 C-200 104.66 -200 105.32 -200 106 C-197.25 107.93 -197.25 107.93 -195.12 108.94 C-188.33 112.33 -188.33 112.33 -187 115 C-185.36 115.72 -183.69 116.39 -182 117 C-182 117.66 -182 118.32 -182 119 C-181.32 119.23 -180.64 119.45 -179.94 119.69 C-176.81 121.09 -174.36 122.81 -171.65 124.88 C-169.88 126.19 -169.88 126.19 -167 127 C-167 127.66 -167 128.32 -167 129 C-166.09 129.29 -165.18 129.58 -164.25 129.88 C-161.68 130.77 -159.39 131.71 -157 133 C-157 133.66 -157 134.32 -157 135 C-156.01 135 -155.02 135 -154 135 C-154 135.66 -154 136.32 -154 137 C-153.01 137.33 -152.02 137.66 -151 138 C-151 138.66 -151 139.32 -151 140 C-149.61 140.15 -149.61 140.15 -148.19 140.31 C-144.85 141.03 -144.15 141.54 -142 144 C-141.01 144.33 -140.02 144.66 -139 145 C-139 145.66 -139 146.32 -139 147 C-138.05 147.31 -137.1 147.62 -136.12 147.94 C-133 149 -133 149 -131 150 C-131 150.66 -131 151.32 -131 152 C-130.09 152.27 -129.18 152.54 -128.25 152.81 C-125.21 153.92 -123.48 155 -121 157 C-120.09 157.52 -119.18 158.03 -118.25 158.56 C-117.51 159.04 -116.76 159.51 -116 160 C-116 160.66 -116 161.32 -116 162 C-115.09 162.27 -114.18 162.54 -113.25 162.81 C-110.18 163.94 -108.55 165.05 -106 167 C-103.99 168.06 -101.95 169.05 -99.9 170.04 C-98 171 -98 171 -95 173 C-95 173.66 -95 174.32 -95 175 C-93.35 175.33 -91.7 175.66 -90 176 C-90 176.66 -90 177.32 -90 178 C-89.28 178.08 -88.56 178.16 -87.81 178.25 C-84.4 179.16 -82.67 180.73 -80 183 C-79.07 183.54 -78.14 184.07 -77.19 184.62 C-76.47 185.08 -75.74 185.53 -75 186 C-75 186.66 -75 187.32 -75 188 C-73.89 188.15 -73.89 188.15 -72.75 188.31 C-69.8 189.05 -68.25 189.99 -66 192 C-65.67 192.66 -65.34 193.32 -65 194 C-63.68 194.37 -62.34 194.69 -61 195 C-59.65 195.64 -58.31 196.3 -57 197 C-57 197.66 -57 198.32 -57 199 C-56.01 199 -55.02 199 -54 199 C-54 199.66 -54 200.32 -54 201 C-52.68 201.33 -51.36 201.66 -50 202 C-50 202.66 -50 203.32 -50 204 C-48.68 204 -47.36 204 -46 204 C-46 204.66 -46 205.32 -46 206 C-45.34 206 -44.68 206 -44 206 C-43.67 206.66 -43.34 207.32 -43 208 C-41.01 209.02 -39.01 210.02 -37 211 C-34.99 212.32 -32.99 213.66 -31 215 C-28.69 216.37 -26.35 217.69 -24 219 C-24 219.66 -24 220.32 -24 221 C-23.07 221.27 -22.14 221.54 -21.19 221.81 C-18.08 222.97 -17.19 223.72 -15 226 C-13.34 226.67 -11.67 227.34 -10 228 C-7.98 229.3 -5.98 230.64 -4 232 C-1.85 233.29 0.3 234.58 2.46 235.85 C2.97 236.23 3.48 236.61 4 237 C4 237.66 4 238.32 4 239 C5.08 239.15 5.08 239.15 6.19 239.31 C9.28 240.07 11.42 241.16 14 243 C14 243.66 14 244.32 14 245 C14.87 245.19 14.87 245.19 15.75 245.38 C18.02 246.01 19.93 246.89 22 248 C22 248.66 22 249.32 22 250 C22.62 250.08 23.24 250.16 23.88 250.25 C24.58 250.5 25.28 250.75 26 251 C26.46 251.99 26.46 251.99 26.94 253 C27.29 253.66 27.64 254.32 28 255 C30.44 255.67 30.44 255.67 33 256 C33.99 256.66 34.98 257.32 36 258 C36 258.66 36 259.32 36 260 C36.93 260.1 37.86 260.21 38.81 260.31 C42.15 261.03 42.85 261.54 45 264 C45.99 264.33 46.98 264.66 48 265 C48 265.66 48 266.32 48 267 C48.93 267.27 49.86 267.54 50.81 267.81 C53.95 268.98 54.79 269.7 57 272 C58.98 273.05 60.97 274.05 63 275 C63 275.66 63 276.32 63 277 C63.89 277.27 64.77 277.54 65.69 277.81 C68.82 278.94 71.18 280.25 74 282 C74.94 282.58 75.89 283.16 76.86 283.75 C77.81 284.35 78.77 284.95 79.75 285.56 C80.71 286.16 81.68 286.76 82.67 287.38 C85 289 85 289 86 291 C86.62 291.14 87.24 291.29 87.88 291.44 C90 292 90 292 91.38 293.44 C93.63 295.6 96.04 296.15 99 297 C99 297.66 99 298.32 99 299 C99.99 299 100.98 299 102 299 C102 299.66 102 300.32 102 301 C102.66 301 103.32 301 104 301 C104 301.66 104 302.32 104 303 C105.98 303.33 107.96 303.66 110 304 C110 304.66 110 305.32 110 306 C111.32 306.33 112.64 306.66 114 307 C114 307.66 114 308.32 114 309 C115.32 308.67 116.64 308.34 118 308 C118.39 308.64 118.78 309.28 119.19 309.94 C121.38 312.44 122.76 312.65 126 313 C126.33 314.32 126.66 315.64 127 317 C127.66 317 128.32 317 129 317 C129 317.66 129 318.32 129 319 C130.32 319.33 131.64 319.66 133 320 C133 320.66 133 321.32 133 322 C133.76 322.12 134.53 322.25 135.31 322.38 C138 323 138 323 141 325 C141.66 325.33 142.32 325.66 143 326 C145 327 145 327 148 329 C148 329.66 148 330.32 148 331 C148.84 331.4 148.84 331.4 149.69 331.81 C154.61 334.34 158.23 337.04 162.06 341.06 C164.91 344.05 167.21 346.35 171 348 C172.75 349.5 172.75 349.5 174 351 C174 351.66 174 352.32 174 353 C174.66 353 175.32 353 176 353 C176.33 353.99 176.66 354.98 177 356 C177.99 356.33 178.98 356.66 180 357 C181.02 358.65 182.02 360.32 183 362 C184.56 363.82 186.16 365.59 187.79 367.35 C189 369 189 369 189 372 C189.9 372.37 189.9 372.37 190.81 372.75 C193.36 374.2 194.52 375.48 196 378 C196 379.32 196 380.64 196 382 C196.96 382.46 196.96 382.46 197.94 382.94 C200 384 200 384 201 385 C201.04 386.67 201.04 388.33 201 390 C201.99 390.33 202.98 390.66 204 391 C204 392.32 204 393.64 204 395 C204.66 395 205.32 395 206 395 C206.33 396.65 206.66 398.3 207 400 C207.66 400 208.32 400 209 400 C209.33 401.98 209.66 403.96 210 406 C210.66 406 211.32 406 212 406 C212 407.65 212 409.3 212 411 C212.66 411 213.32 411 214 411 C214 412.32 214 413.64 214 415 C214.66 415 215.32 415 216 415 C216.27 415.88 216.53 416.76 216.8 417.67 C217.16 418.83 217.51 419.99 217.88 421.19 C218.22 422.34 218.57 423.48 218.93 424.67 C219.84 427.51 220.89 430.23 222 433 C223.71 439.5 224.57 446.01 225.3 452.68 C225.42 456.13 225.42 456.13 227 459 C227.07 460.69 227.08 462.38 227.06 464.06 C227.05 465.44 227.05 465.44 227.04 466.85 C227.02 467.91 227.02 467.91 227 469 C227.66 469 228.32 469 229 469 C229 479.56 229 490.12 229 501 C228.67 501 228.34 501 228 501 C227.95 502.02 227.9 503.05 227.85 504.11 C227.78 505.47 227.7 506.83 227.62 508.19 C227.59 508.86 227.56 509.53 227.53 510.23 C227.3 514.23 226.63 517.36 225 521 C224.65 523.33 224.32 525.67 224 528 C223.36 530.34 222.7 532.68 222 535 C221.84 535.64 221.69 536.28 221.53 536.94 C220.97 539.11 220.29 541.19 219.56 543.31 C218.61 546.14 217.74 548.94 216.94 551.81 C216.17 554.43 215.33 556.63 214 559 C213.34 559 212.68 559 212 559 C211.67 560.98 211.34 562.96 211 565 C210.34 565 209.68 565 209 565 C209 566.65 209 568.3 209 570 C208.34 570 207.68 570 207 570 C206.67 571.65 206.34 573.3 206 575 C205.34 575 204.68 575 204 575 C204 576.65 204 578.3 204 580 C203.34 580.33 202.68 580.66 202 581 C201.71 581.99 201.42 582.98 201.12 584 C200.75 584.99 200.38 585.98 200 587 C197.87 587.88 197.87 587.88 196 588 C196.06 588.75 196.13 589.49 196.19 590.26 C195.96 593.58 195.2 594.45 192.94 596.81 C192.29 597.5 191.65 598.2 190.98 598.91 C190.33 599.6 189.67 600.29 189 601 C187.91 602.25 186.83 603.5 185.75 604.75 C184.5 606.17 183.25 607.59 182 609 C181.2 609.91 180.4 610.82 179.57 611.75 C174.63 617.28 169.51 622.59 164.12 627.69 C163.59 628.2 163.05 628.72 162.5 629.25 C159.38 632.15 157.2 633.44 153 634 C152.67 634.66 152.34 635.32 152 636 C151.67 636.66 151.34 637.32 151 638 C148.37 638.75 148.37 638.75 146 639 C145.67 639.99 145.34 640.98 145 642 C142 644 142 644 138 644 C137.67 644.99 137.34 645.98 137 647 C134 649 134 649 130 649 C130 649.66 130 650.32 130 651 C126.68 652.42 123.56 653.39 120 654 C120 654.66 120 655.32 120 656 C119.36 656.25 118.72 656.5 118.06 656.75 C115.52 657.79 113.01 658.88 110.5 660 C109.71 660.35 108.93 660.69 108.12 661.05 C106.59 661.74 105.07 662.45 103.56 663.19 C100.11 664.28 96.71 664.44 93.11 664.66 C92.41 664.77 91.72 664.88 91 665 C90.67 665.66 90.34 666.32 90 667 C87.75 667.56 87.75 667.56 85 668 C84.26 668.15 83.51 668.31 82.75 668.46 C78.45 669.3 74.1 669.88 69.77 670.5 C67.1 670.71 67.1 670.71 66 672 C63.98 672.23 61.96 672.41 59.94 672.56 C58.83 672.65 57.73 672.73 56.59 672.82 C55.74 672.88 54.88 672.94 54 673 C54 673.33 54 673.66 54 674 C-2.44 674.05 -58.89 674.08 -115.33 674.1 C-121.99 674.1 -128.65 674.11 -135.31 674.11 C-136.31 674.11 -136.31 674.11 -137.32 674.11 C-158.81 674.12 -180.29 674.13 -201.78 674.15 C-224.48 674.17 -247.19 674.18 -269.89 674.19 C-283.49 674.19 -297.1 674.2 -310.7 674.22 C-320.02 674.23 -329.34 674.23 -338.66 674.23 C-344.05 674.23 -349.43 674.23 -354.81 674.24 C-359.74 674.25 -364.66 674.25 -369.59 674.24 C-371.37 674.24 -373.15 674.24 -374.94 674.25 C-377.36 674.26 -379.78 674.25 -382.2 674.25 C-382.9 674.25 -383.59 674.26 -384.31 674.26 C-388.92 674.23 -392.66 673.42 -397 672 C-397.17 624.55 -397.34 577.1 -397.48 529.65 C-397.5 524.05 -397.52 518.45 -397.54 512.86 C-397.54 511.74 -397.54 510.63 -397.55 509.48 C-397.6 491.42 -397.67 473.36 -397.74 455.3 C-397.8 436.77 -397.87 418.25 -397.92 399.73 C-397.95 388.29 -397.99 376.85 -398.04 365.42 C-398.07 357.58 -398.09 349.75 -398.11 341.91 C-398.12 337.39 -398.14 332.86 -398.16 328.34 C-398.18 324.2 -398.19 320.06 -398.2 315.92 C-398.2 314.42 -398.21 312.92 -398.22 311.42 C-398.23 309.38 -398.23 307.35 -398.23 305.32 C-398.23 304.19 -398.24 303.05 -398.24 301.89 C-398 299 -398 299 -396 295 C-377.85 295 -359.7 295 -341 295 C-341 294.67 -341 294.34 -341 294 C-308.66 294 -276.32 294 -243 294 C-243 294.33 -243 294.66 -243 295 C-242.27 295 -241.54 295 -240.79 295 C-233.88 295 -226.96 295.02 -220.05 295.08 C-216.5 295.11 -212.94 295.13 -209.39 295.12 C-205.29 295.11 -201.2 295.15 -197.1 295.2 C-195.84 295.19 -194.58 295.18 -193.28 295.17 C-185.27 295.3 -179.17 296.6 -173 302 C-173 302.66 -173 303.32 -173 304 C-172.24 304.12 -171.47 304.25 -170.69 304.38 C-168 305 -168 305 -165 307 C-165 307.66 -165 308.32 -165 309 C-164.38 309.08 -163.76 309.16 -163.12 309.25 C-162.42 309.5 -161.72 309.75 -161 310 C-160.73 310.66 -160.46 311.32 -160.19 312 C-159.8 312.66 -159.4 313.32 -159 314 C-156.67 314.37 -154.34 314.71 -152 315 C-151.01 316.49 -151.01 316.49 -150 318 C-147.69 319.52 -145.38 320.82 -142.88 322 C-141 323 -141 323 -139.56 324.5 C-137.58 326.4 -135.55 327.01 -133 328 C-131.65 328.98 -130.32 329.98 -129 331 C-127.74 331.8 -126.46 332.59 -125.19 333.38 C-121.93 335.38 -118.81 337.51 -115.74 339.79 C-114.4 340.72 -113.01 341.59 -111.61 342.43 C-108.07 344.56 -104.76 346.97 -101.4 349.38 C-99.32 350.79 -97.28 351.94 -95 353 C-95 353.66 -95 354.32 -95 355 C-94.24 355.12 -93.47 355.25 -92.69 355.38 C-90 356 -90 356 -87 358 C-87 358.66 -87 359.32 -87 360 C-86.26 360.1 -85.51 360.21 -84.75 360.31 C-81.72 361.07 -80.46 362.11 -78 364 C-76.7 364.67 -75.38 365.31 -74.06 365.94 C-70.65 367.59 -67.92 369.55 -65 372 C-62.43 373.6 -59.83 375.09 -57.19 376.56 C-56.1 377.27 -56.1 377.27 -55 378 C-55 378.66 -55 379.32 -55 380 C-54 380.23 -53 380.46 -51.98 380.7 C-47.55 381.96 -44.12 384.26 -40.38 386.88 C-39.73 387.31 -39.09 387.74 -38.43 388.19 C-34.83 390.65 -31.37 393.22 -28 396 C-28.33 397.32 -28.66 398.64 -29 400 C-116.12 400 -203.24 400 -293 400 C-293 404.95 -293 409.9 -293 415 C-293.33 415.33 -293.66 415.66 -294 416 C-294.1 417.48 -294.13 418.96 -294.13 420.44 C-294.13 421.33 -294.14 422.23 -294.14 423.15 C-294.13 424.09 -294.13 425.03 -294.12 426 C-294.13 426.94 -294.13 427.88 -294.14 428.85 C-294.14 429.75 -294.13 430.64 -294.13 431.56 C-294.13 432.8 -294.13 432.8 -294.13 434.07 C-294.21 436.01 -294.21 436.01 -293 437 C-292.9 438.68 -292.88 440.37 -292.88 442.06 C-292.88 443.7 -292.88 443.7 -292.88 445.37 C-292.88 447.19 -292.88 447.19 -292.89 449.05 C-292.89 450.32 -292.89 451.58 -292.89 452.89 C-292.89 456.38 -292.89 459.86 -292.9 463.35 C-292.9 466.99 -292.91 470.63 -292.91 474.27 C-292.91 481.17 -292.92 488.07 -292.93 494.97 C-292.94 502.82 -292.94 510.68 -292.95 518.53 C-292.96 534.69 -292.98 550.84 -293 567 C-289.86 568.05 -287.67 568.13 -284.37 568.13 C-283.19 568.13 -282.02 568.14 -280.8 568.14 C-279.5 568.14 -278.2 568.14 -276.86 568.13 C-275.47 568.14 -274.07 568.14 -272.68 568.14 C-268.85 568.15 -265.02 568.15 -261.18 568.15 C-257.05 568.15 -252.92 568.15 -248.79 568.16 C-240.69 568.16 -232.59 568.17 -224.49 568.17 C-217.9 568.17 -211.32 568.17 -204.73 568.17 C-186.06 568.18 -167.38 568.19 -148.7 568.19 C-147.7 568.19 -146.69 568.19 -145.65 568.19 C-144.14 568.19 -144.14 568.19 -142.59 568.19 C-126.27 568.18 -109.94 568.19 -93.61 568.21 C-76.84 568.22 -60.07 568.23 -43.3 568.23 C-33.89 568.23 -24.48 568.23 -15.06 568.24 C-7.04 568.25 0.97 568.25 8.99 568.25 C13.08 568.24 17.17 568.24 21.26 568.25 C25.01 568.26 28.76 568.26 32.51 568.25 C34.5 568.25 36.48 568.25 38.46 568.26 C48.68 568.22 59.19 567.83 68.56 563.38 C72.23 561.65 73.85 561 78 561 C78 560.34 78 559.68 78 559 C78.9 558.85 78.9 558.85 79.81 558.69 C82.33 557.9 83.19 556.88 85 555 C85.66 554.69 86.32 554.38 87 554.06 C89.42 552.78 90.38 551.18 92 549 C92.99 548.67 93.98 548.34 95 548 C95 547.34 95 546.68 95 546 C95.76 545.75 96.53 545.5 97.31 545.25 C100.4 543.82 101.12 542.79 103 540 C104.01 538.85 105.04 537.7 106.06 536.56 C108.41 533.86 109.95 531.48 111 528 C111.66 528 112.32 528 113 528 C113.27 527.13 113.54 526.27 113.81 525.38 C115 522 115 522 116.5 519.06 C118.12 515.76 119.03 512.54 120 509 C120.37 508.17 120.74 507.35 121.12 506.5 C122.19 503.91 122.19 503.91 122 500.62 C122 497 122 497 122.98 493.73 C125.32 485.16 124.6 475.71 122.44 467.15 C121.94 464.72 121.93 462.47 122 460 C121.34 460 120.68 460 120 460 C119.73 458.78 119.46 457.57 119.19 456.31 C118.29 452.73 117.02 450.11 115 447 C114 444.97 113.02 442.92 112.06 440.87 C111.07 438.93 111.07 438.93 109.44 437.45 C108 436 108 436 107 433 C106.34 432.34 105.68 431.68 105 431 C104.08 429.88 103.16 428.75 102.25 427.62 C100.21 425.21 98.3 423.37 95.62 421.69 C94.76 421.13 93.89 420.57 93 420 C93 419.34 93 418.68 93 418 C92.16 417.6 92.16 417.6 91.31 417.19 C86.8 414.87 82.96 412.17 79 409 C77.34 407.99 75.67 406.99 74 406 C73.34 405.34 72.68 404.68 72 404 C70.34 403.33 68.67 402.66 67 402 C65.64 401.17 64.31 400.29 63 399.38 C60.23 397.47 57.45 395.65 54.56 393.93 C53.68 393.41 53.68 393.41 52.78 392.87 C51.06 391.85 49.34 390.84 47.62 389.83 C45 388 45 388 44 385 C43.24 384.9 42.47 384.79 41.69 384.69 C38.7 383.92 38.03 383.2 36 381 C33.59 379.42 31.35 378.13 28.65 377.12 C25.78 375.91 23.52 374.39 21 372.56 C17.1 369.74 13.19 367.1 8.88 364.94 C7 364 7 364 4 362 C4 361.01 4 360.02 4 359 C2.35 359 0.7 359 -1 359 C-1 358.34 -1 357.68 -1 357 C-1.99 356.67 -2.98 356.34 -4 356 C-4 355.34 -4 354.68 -4 354 C-5.14 354.09 -5.14 354.09 -6.31 354.19 C-9 354 -9 354 -10.81 352.62 C-12 351 -12 351 -12 349 C-12.74 348.9 -13.49 348.79 -14.25 348.69 C-17.25 347.94 -18.63 346.93 -21 345 C-22.66 343.99 -24.33 342.99 -26 342 C-29.28 339.98 -32.56 337.96 -35.84 335.94 C-37.81 334.73 -39.79 333.54 -41.78 332.38 C-44 331 -44 331 -46 328.94 C-48.23 326.78 -50.13 326.1 -53 325 C-54 324 -55 323 -56 322 C-57.27 321.54 -57.27 321.54 -58.56 321.06 C-61.52 319.77 -61.65 318.79 -63 316 C-65.05 315.19 -65.05 315.19 -67 315 C-66.67 314.34 -66.34 313.68 -66 313 C-67.32 313.33 -68.64 313.66 -70 314 C-70.33 313.34 -70.66 312.68 -71 312 C-73.02 311.35 -73.02 311.35 -75 311 C-75 310.34 -75 309.68 -75 309 C-75.66 309 -76.32 309 -77 309 C-77.47 308.5 -77.95 308.01 -78.44 307.5 C-80 305.65 -80 305.65 -83 306 C-83 305.01 -83 304.02 -83 303 C-84.32 302.67 -85.64 302.34 -87 302 C-86.67 301.34 -86.34 300.68 -86 300 C-86.58 300.21 -87.15 300.41 -87.75 300.62 C-90.55 301.09 -91.65 300.54 -94 299 C-94.33 298.34 -94.66 297.68 -95 297 C-96.32 296.31 -97.66 295.65 -99 295 C-99.95 294.36 -100.9 293.72 -101.88 293.06 C-104.95 290.94 -104.95 290.94 -108.31 289.38 C-111 288 -111 288 -112 286 C-113.15 285.5 -114.31 285.01 -115.5 284.5 C-119 283 -119 283 -120 281 C-120.78 280.69 -121.57 280.38 -122.38 280.06 C-125.02 278.99 -126.11 278.06 -128 276 C-128.99 275.34 -129.98 274.68 -131 274 C-130.67 273.34 -130.34 272.68 -130 272 C-131.32 272.33 -132.64 272.66 -134 273 C-134 272.34 -134 271.68 -134 271 C-134.91 270.75 -135.82 270.5 -136.75 270.25 C-140.16 268.94 -141.51 267.57 -144 265 C-146.14 264.21 -146.14 264.21 -148 264 C-148 263.34 -148 262.68 -148 262 C-148.76 261.9 -149.53 261.79 -150.31 261.69 C-153.29 260.93 -153.94 260.15 -156 258 C-156.83 257.67 -157.65 257.34 -158.5 257 C-161.08 255.97 -162.11 254.97 -164 253 C-166.1 251.82 -166.1 251.82 -168 251 C-168 250.34 -168 249.68 -168 249 C-168.95 248.9 -169.9 248.79 -170.88 248.69 C-174 248 -174 248 -176 245 C-178.05 243.81 -178.05 243.81 -180 243 C-179.67 242.34 -179.34 241.68 -179 241 C-180.32 241 -181.64 241 -183 241 C-183 240.34 -183 239.68 -183 239 C-183.76 239.06 -184.53 239.12 -185.31 239.19 C-188 239 -188 239 -189.81 237.62 C-191 236 -191 236 -191 234 C-191.95 233.9 -192.9 233.79 -193.88 233.69 C-197 233 -197 233 -199 230 C-199.83 229.67 -200.65 229.34 -201.5 229 C-204 228 -204 228 -206 225 C-209.05 223.79 -209.05 223.79 -212 223 C-212 222.34 -212 221.68 -212 221 C-213.14 220.85 -213.14 220.85 -214.31 220.69 C-217.32 219.92 -217.91 219.17 -220 217 C-220.85 216.59 -221.69 216.17 -222.56 215.75 C-226.59 213.7 -230.08 211.18 -233.73 208.52 C-236.01 206.85 -236.01 206.85 -239 206 C-239 205.34 -239 204.68 -239 204 C-239.66 204 -240.32 204 -241 204 C-241.43 203.55 -241.87 203.09 -242.31 202.62 C-244.39 200.62 -246.31 200.04 -249 199 C-251.37 197.72 -253.68 196.37 -256 195 C-256 194.34 -256 193.68 -256 193 C-256.57 192.89 -257.14 192.78 -257.73 192.67 C-260.32 191.91 -262.04 190.79 -264.25 189.25 C-269.41 185.71 -274.69 182.4 -280.04 179.16 C-286.1 175.47 -292.03 171.69 -297.78 167.54 C-299.37 166.43 -301.02 165.4 -302.68 164.4 C-305 163 -305 163 -306.56 161.38 C-308.3 159.72 -309.66 159.4 -312 159 C-312 158.34 -312 157.68 -312 157 C-313.14 156.85 -313.14 156.85 -314.31 156.69 C-317.32 155.92 -317.91 155.17 -320 153 C-321.98 151.95 -323.97 150.95 -326 150 C-326 149.01 -326 148.02 -326 147 C-326.74 147.08 -327.49 147.16 -328.25 147.25 C-331.84 146.92 -332.58 145.57 -335 143 C-336.65 142.3 -338.32 141.64 -340 141 C-342.02 139.7 -344.02 138.36 -346 137 C-346.82 136.53 -347.65 136.05 -348.5 135.56 C-351.63 133.61 -354.26 131.48 -357 129 C-357 128.34 -357 127.68 -357 127 C-357.99 127.33 -358.98 127.66 -360 128 C-360.21 127.36 -360.41 126.72 -360.62 126.06 C-361.08 125.38 -361.53 124.7 -362 124 C-363.99 123.62 -365.99 123.29 -368 123 C-369.44 121.69 -369.44 121.69 -371 120 C-374.52 117.76 -378.24 115.81 -382 114 C-382 113.01 -382 112.02 -382 111 C-383.08 111.09 -383.08 111.09 -384.17 111.19 C-388.95 110.87 -391.47 108.66 -394.87 105.42 C-400.1 98.41 -398.34 87.31 -398.23 79.06 C-398.24 76.81 -398.25 74.56 -398.26 72.31 C-398.29 66.42 -398.25 60.52 -398.21 54.62 C-398.17 48.6 -398.2 42.57 -398.22 36.55 C-398.24 27.78 -398.24 19.01 -398.18 10.24 C-398.18 9.32 -398.17 8.39 -398.17 7.43 C-398.12 1.12 -398.12 1.12 -397 0 C-394.94 -0.1 -392.88 -0.14 -390.82 -0.14 C-390.17 -0.14 -389.51 -0.15 -388.84 -0.15 C-386.61 -0.16 -384.39 -0.16 -382.17 -0.16 C-380.57 -0.17 -378.97 -0.18 -377.37 -0.18 C-372.95 -0.2 -368.53 -0.21 -364.11 -0.22 C-359.36 -0.23 -354.6 -0.24 -349.85 -0.26 C-340.52 -0.28 -331.19 -0.31 -321.86 -0.33 C-314.28 -0.35 -306.7 -0.37 -299.12 -0.39 C-298.04 -0.39 -296.96 -0.39 -295.85 -0.39 C-293.67 -0.4 -291.48 -0.41 -289.29 -0.41 C-268.74 -0.47 -248.2 -0.52 -227.65 -0.57 C-210.01 -0.61 -192.38 -0.65 -174.75 -0.7 C-154.29 -0.76 -133.83 -0.82 -113.37 -0.87 C-111.18 -0.87 -109 -0.88 -106.82 -0.88 C-105.21 -0.89 -105.21 -0.89 -103.56 -0.89 C-96 -0.91 -88.43 -0.93 -80.86 -0.95 C-71.63 -0.98 -62.4 -1 -53.17 -1.02 C-48.46 -1.03 -43.75 -1.04 -39.04 -1.06 C-34.73 -1.07 -30.41 -1.08 -26.1 -1.08 C-24.54 -1.09 -22.98 -1.09 -21.42 -1.1 C-14.21 -1.13 -7.14 -1.14 0 0 Z M-203 102 C-203 102.33 -203 102.66 -203 103 C-200.36 103 -197.72 103 -195 103 C-195 102.67 -195 102.34 -195 102 C-197.64 102 -200.28 102 -203 102 Z M-6 103 C-6 103.33 -6 103.66 -6 104 C-3.36 104 -0.72 104 2 104 C2 103.67 2 103.34 2 103 C-0.64 103 -3.28 103 -6 103 Z M157 122 C158 124 158 124 158 124 Z M-352 130 C-352 130.66 -352 131.32 -352 132 C-351.34 131.67 -350.68 131.34 -350 131 C-350.66 130.67 -351.32 130.34 -352 130 Z M160 130 C161 133 161 133 161 133 Z M162 137 C163 139 163 139 163 139 Z M165 148 C165 149.98 165 151.96 165 154 C165.66 153.67 166.32 153.34 167 153 C166.67 151.35 166.34 149.7 166 148 C165.67 148 165.34 148 165 148 Z M167 160 C167 163.63 167 167.26 167 171 C167.33 171 167.66 171 168 171 C168 167.37 168 163.74 168 160 C167.67 160 167.34 160 167 160 Z M-280 176 C-280 176.66 -280 177.32 -280 178 C-279.34 177.67 -278.68 177.34 -278 177 C-278.66 176.67 -279.32 176.34 -280 176 Z M-232 207 C-231 209 -231 209 -231 209 Z M165 225 C165 228.3 165 231.6 165 235 C165.33 235 165.66 235 166 235 C166 231.7 166 228.4 166 225 C165.67 225 165.34 225 165 225 Z M160 245 C161 249 161 249 161 249 Z M-161 254 C-159.51 254.99 -159.51 254.99 -158 256 C-158 255.34 -158 254.68 -158 254 C-158.99 254 -159.98 254 -161 254 Z M144 271 C144.99 272.49 144.99 272.49 146 274 C146.66 273.67 147.32 273.34 148 273 C146.68 272.34 145.36 271.68 144 271 Z M-46 327 C-45.67 327.66 -45.34 328.32 -45 329 C-44.34 328.67 -43.68 328.34 -43 328 C-43.99 327.67 -44.98 327.34 -46 327 Z M26 374 C27.49 374.99 27.49 374.99 29 376 C29 375.34 29 374.68 29 374 C28.01 374 27.02 374 26 374 Z M-220 397 C-220 397.33 -220 397.66 -220 398 C-217.69 398 -215.38 398 -213 398 C-213 397.67 -213 397.34 -213 397 C-215.31 397 -217.62 397 -220 397 Z M-177 397 C-177 397.33 -177 397.66 -177 398 C-172.05 398 -167.1 398 -162 398 C-162 397.67 -162 397.34 -162 397 C-166.95 397 -171.9 397 -177 397 Z M-111 397 C-111 397.33 -111 397.66 -111 398 C-109.35 398 -107.7 398 -106 398 C-106 397.67 -106 397.34 -106 397 C-107.65 397 -109.3 397 -111 397 Z M-99 397 C-99 397.33 -99 397.66 -99 398 C-97.02 398 -95.04 398 -93 398 C-93 397.67 -93 397.34 -93 397 C-94.98 397 -96.96 397 -99 397 Z M-89 397 C-89 397.33 -89 397.66 -89 398 C-87.02 398 -85.04 398 -83 398 C-83 397.67 -83 397.34 -83 397 C-84.98 397 -86.96 397 -89 397 Z M-62 397 C-62 397.33 -62 397.66 -62 398 C-60.35 398 -58.7 398 -57 398 C-57 397.67 -57 397.34 -57 397 C-58.65 397 -60.3 397 -62 397 Z M226 470 C226 471.65 226 473.3 226 475 C226.33 475 226.66 475 227 475 C227 473.35 227 471.7 227 470 C226.67 470 226.34 470 226 470 Z M227 475 C227 480.94 227 486.88 227 493 C227.33 493 227.66 493 228 493 C228 487.06 228 481.12 228 475 C227.67 475 227.34 475 227 475 Z M226 493 C227 497 227 497 227 497 Z M226 498 C227 500 227 500 227 500 Z M225 512 C226 514 226 514 226 514 Z M224 514 C225 518 225 518 225 518 Z M222 526 C223 528 223 528 223 528 Z M-295 537 C-294 541 -294 541 -294 541 Z M198 583 C198.33 583.99 198.66 584.98 199 586 C199.33 585.01 199.66 584.02 200 583 C199.34 583 198.68 583 198 583 Z M193 590 C191.51 591.98 191.51 591.98 190 594 C190.33 594.66 190.66 595.32 191 596 C192.32 594.68 193.64 593.36 195 592 C194.34 591.34 193.68 590.68 193 590 Z M185 601 C185.33 601.66 185.66 602.32 186 603 C186.33 602.34 186.66 601.68 187 601 C186.34 601 185.68 601 185 601 Z M180 606 C180.33 606.66 180.66 607.32 181 608 C181.33 607.34 181.66 606.68 182 606 C181.34 606 180.68 606 180 606 Z M177 609 C177.33 609.66 177.66 610.32 178 611 C178.33 610.34 178.66 609.68 179 609 C178.34 609 177.68 609 177 609 Z M173.38 612.5 C172.92 613 172.47 613.49 172 614 C172.33 614.66 172.66 615.32 173 616 C174.32 614.35 175.64 612.7 177 611 C174.88 610.77 174.88 610.77 173.38 612.5 Z M170 616 C169.34 617.32 168.68 618.64 168 620 C168.99 619.34 169.98 618.68 171 618 C170.67 617.34 170.34 616.68 170 616 Z M164.38 621.5 C163.92 622 163.47 622.49 163 623 C163.33 623.66 163.66 624.32 164 625 C165.32 623.35 166.64 621.7 168 620 C165.88 619.77 165.88 619.77 164.38 621.5 Z M159.38 626.5 C158.92 627 158.47 627.49 158 628 C158.33 628.66 158.66 629.32 159 630 C160.32 628.35 161.64 626.7 163 625 C160.88 624.77 160.88 624.77 159.38 626.5 Z M156 630 C156.33 630.66 156.66 631.32 157 632 C157.33 631.34 157.66 630.68 158 630 C157.34 630 156.68 630 156 630 Z M-389 671 C-389 671.33 -389 671.66 -389 672 C-387.35 672 -385.7 672 -384 672 C-384 671.67 -384 671.34 -384 671 C-385.65 671 -387.3 671 -389 671 Z M-15 671 C-15 671.33 -15 671.66 -15 672 C-12.69 672 -10.38 672 -8 672 C-8 671.67 -8 671.34 -8 671 C-10.31 671 -12.62 671 -15 671 Z M41 671 C41 671.33 41 671.66 41 672 C43.97 672 46.94 672 50 672 C50 671.67 50 671.34 50 671 C47.03 671 44.06 671 41 671 Z " fill="#EFF2F3" transform="translate(724,302)"/>
<path d="M0 0 C0.74 -0 1.48 -0 2.24 -0.01 C4.73 -0.01 7.21 -0.01 9.69 -0.01 C11.49 -0.01 13.29 -0.01 15.08 -0.02 C20.03 -0.03 24.97 -0.03 29.91 -0.03 C35.24 -0.03 40.57 -0.04 45.9 -0.04 C57.55 -0.06 69.2 -0.06 80.85 -0.07 C88.12 -0.07 95.39 -0.08 102.66 -0.08 C122.77 -0.09 142.89 -0.1 163.01 -0.11 C164.29 -0.11 165.58 -0.11 166.91 -0.11 C168.2 -0.11 169.49 -0.11 170.82 -0.11 C173.43 -0.11 176.05 -0.11 178.66 -0.11 C179.96 -0.11 181.26 -0.11 182.6 -0.11 C203.64 -0.11 224.68 -0.13 245.72 -0.15 C267.31 -0.18 288.9 -0.19 310.49 -0.19 C322.62 -0.19 334.75 -0.2 346.87 -0.22 C357.2 -0.23 367.52 -0.24 377.84 -0.23 C383.11 -0.22 388.38 -0.23 393.65 -0.24 C398.47 -0.25 403.29 -0.25 408.11 -0.24 C409.86 -0.24 411.6 -0.24 413.35 -0.25 C415.72 -0.26 418.08 -0.25 420.45 -0.24 C421.77 -0.24 423.09 -0.24 424.44 -0.24 C427.6 0.13 427.6 0.13 430.6 3.13 C284.08 3.13 137.56 3.13 -13.4 3.13 C-13.07 2.47 -12.74 1.81 -12.4 1.13 C-8.3 -0.07 -4.25 0 0 0 Z " fill="#7D8FC1" transform="translate(347.4004154205322,972.8685722351074)"/>
<path d="M0 0 C0.89 -0 1.78 -0 2.7 -0.01 C3.68 -0 4.66 -0 5.67 0 C6.71 0 7.75 0 8.82 0 C12.32 -0 15.82 0 19.32 0.01 C21.82 0.01 24.33 0.01 26.83 0.01 C32.23 0.01 37.62 0.01 43.02 0.02 C50.82 0.03 58.63 0.03 66.43 0.03 C79.09 0.03 91.75 0.04 104.41 0.05 C116.71 0.06 129.01 0.06 141.31 0.07 C142.07 0.07 142.82 0.07 143.61 0.07 C147.41 0.07 151.21 0.07 155.01 0.07 C186.56 0.08 218.11 0.1 249.66 0.12 C249.66 0.78 249.66 1.44 249.66 2.12 C250.65 2.45 251.64 2.78 252.66 3.12 C166.53 3.12 80.4 3.12 -8.34 3.12 C-6.59 -0.37 -3.5 -0 0 0 Z " fill="#7E90C2" transform="translate(439.335955619812,698.8769521713257)"/>
<path d="M0 0 C32.34 0 64.68 0 98 0 C98 0.33 98 0.66 98 1 C117.14 1.33 136.28 1.66 156 2 C156.33 2.66 156.66 3.32 157 4 C129.8 3.92 102.6 3.82 75.4 3.71 C62.78 3.66 50.15 3.62 37.52 3.58 C26.52 3.55 15.51 3.51 4.51 3.46 C-1.32 3.43 -7.15 3.41 -12.98 3.4 C-18.46 3.38 -23.94 3.36 -29.42 3.33 C-31.44 3.32 -33.45 3.32 -35.47 3.32 C-38.22 3.31 -40.96 3.3 -43.7 3.28 C-44.91 3.28 -44.91 3.28 -46.14 3.28 C-49.96 3.25 -51.75 3.17 -55 1 C-36.85 1 -18.7 1 0 1 C0 0.67 0 0.34 0 0 Z " fill="#7E90C2" transform="translate(383,596)"/>
<path d="M0 0 C0.33 0 0.66 0 1 0 C1 31.68 1 63.36 1 96 C0.67 96 0.34 96 0 96 C0 64.32 0 32.64 0 0 Z " fill="#7E90C2" transform="translate(325,794)"/>
<path d="M0 0 C0 3.66 -0.66 4.08 -3.11 6.66 C-3.78 7.37 -4.45 8.07 -5.13 8.8 C-5.85 9.55 -6.57 10.29 -7.31 11.06 C-8.04 11.82 -8.76 12.58 -9.5 13.36 C-15.1 19.19 -20.88 24.72 -27 30 C-27.66 29.67 -28.32 29.34 -29 29 C-19.43 19.43 -9.86 9.86 0 0 Z " fill="#BAC4DC" transform="translate(910,904)"/>
<path d="M0 0 C0.33 0 0.66 0 1 0 C1 23.43 1 46.86 1 71 C0.67 71 0.34 71 0 71 C0 47.57 0 24.14 0 0 Z " fill="#7E90C2" transform="translate(325,720)"/>
<path d="M0 0 C0.33 0 0.66 0 1 0 C1.06 3.85 1.09 7.71 1.12 11.56 C1.14 12.65 1.16 13.73 1.18 14.85 C1.22 22.35 0.73 28.34 -3 35 C-3.03 33.52 -3.05 32.04 -3.06 30.56 C-3.07 29.74 -3.09 28.92 -3.1 28.07 C-3 26 -3 26 -2 25 C-1.77 23.15 -1.6 21.29 -1.46 19.43 C-1.38 18.31 -1.29 17.18 -1.2 16.03 C-1.11 14.84 -1.03 13.66 -0.94 12.44 C-0.85 11.25 -0.76 10.06 -0.66 8.84 C-0.44 5.89 -0.22 2.95 0 0 Z " fill="#7E90C2" transform="translate(791,483)"/>
<path d="M0 0 C0.66 0 1.32 0 2 0 C2 10.56 2 21.12 2 32 C1.01 31.01 0.02 30.02 -1 29 C-0.69 26.67 -0.69 26.67 0 24 C0.08 22.09 0.11 20.17 0.1 18.26 C0.09 17.2 0.09 16.13 0.09 15.03 C0.08 13.93 0.07 12.82 0.06 11.69 C0.06 10.57 0.05 9.44 0.05 8.29 C0.04 5.52 0.02 2.76 0 0 Z " fill="#7D8FBE" transform="translate(951,771)"/>
<path d="M0 0 C0.33 0 0.66 0 1 0 C1 14.52 1 29.04 1 44 C0.67 44 0.34 44 0 44 C0 29.48 0 14.96 0 0 Z " fill="#7E90C2" transform="translate(325,636)"/>
<path d="M0 0 C0.33 0 0.66 0 1 0 C1 13.53 1 27.06 1 41 C0.67 41 0.34 41 0 41 C0 27.47 0 13.94 0 0 Z " fill="#7E90C2" transform="translate(325,891)"/>
<path d="M0 0 C0.66 0 1.32 0 2 0 C2.33 1.32 2.66 2.64 3 4 C3.56 4.04 4.11 4.08 4.69 4.12 C8.24 5.47 9.71 8.01 12 11 C11.01 11.5 11.01 11.5 10 12 C8.72 10.92 7.46 9.84 6.19 8.75 C5.48 8.15 4.77 7.54 4.04 6.92 C2.08 5.08 0.54 3.2 -1 1 C-0.67 0.67 -0.34 0.34 0 0 Z " fill="#9EABD0" transform="translate(762,424)"/>
<path d="M0 0 C0.33 0 0.66 0 1 0 C1 12.54 1 25.08 1 38 C0.67 38 0.34 38 0 38 C0 25.46 0 12.92 0 0 Z " fill="#7E90C2" transform="translate(325,319)"/>
<path d="M0 0 C0.66 0 1.32 0 2 0 C1.67 5.28 1.34 10.56 1 16 C0.34 16 -0.32 16 -1 16 C-1.1 10.55 -1.13 5.36 0 0 Z " fill="#8D9DC8" transform="translate(893,508)"/>
<path d="M0 0 C0.99 0 1.98 0 3 0 C5 2 5 2 6 4 C6.66 4 7.32 4 8 4 C8 4.66 8 5.32 8 6 C8.99 5.67 9.98 5.34 11 5 C11.33 6.32 11.66 7.64 12 9 C7.56 6.83 3.27 4.48 -1 2 C-0.67 1.34 -0.34 0.68 0 0 Z " fill="#8997BD" transform="translate(771,689)"/>
<path d="M0 0 C0.33 0 0.66 0 1 0 C1 7.59 1 15.18 1 23 C0.67 23 0.34 23 0 23 C0 15.41 0 7.82 0 0 Z " fill="#7E90C2" transform="translate(325,934)"/>
<path d="M0 0 C0.33 0 0.66 0 1 0 C1 6.93 1 13.86 1 21 C0.67 21 0.34 21 0 21 C0 14.07 0 7.14 0 0 Z " fill="#7E90C2" transform="translate(325,359)"/>
<path d="M0 0 C0.33 0 0.66 0 1 0 C1 6.6 1 13.2 1 20 C0.67 20 0.34 20 0 20 C0 13.4 0 6.8 0 0 Z " fill="#7E90C2" transform="translate(430,718)"/>
<path d="M0 0 C5.28 0 10.56 0 16 0 C16 0.33 16 0.66 16 1 C10.72 1 5.44 1 0 1 C0 0.67 0 0.34 0 0 Z " fill="#7E90C2" transform="translate(339,596)"/>
<path d="M0 0 C0.33 0 0.66 0 1 0 C1 4.29 1 8.58 1 13 C0.67 13 0.34 13 0 13 C0 8.71 0 4.42 0 0 Z " fill="#7E90C2" transform="translate(325,681)"/>
<path d="M0 0 C0.33 0 0.66 0 1 0 C1 3.96 1 7.92 1 12 C0.67 12 0.34 12 0 12 C0 8.04 0 4.08 0 0 Z " fill="#7E90C2" transform="translate(325,389)"/>
<path d="M0 0 C0.33 0 0.66 0 1 0 C1 2.97 1 5.94 1 9 C0.67 9 0.34 9 0 9 C0 6.03 0 3.06 0 0 Z " fill="#7E90C2" transform="translate(325,605)"/>
<path d="M0 0 C2.97 0 5.94 0 9 0 C9 0.33 9 0.66 9 1 C6.03 1 3.06 1 0 1 C0 0.67 0 0.34 0 0 Z " fill="#7E90C2" transform="translate(520,596)"/>
<path d="M0 0 C0.33 0 0.66 0 1 0 C1 2.64 1 5.28 1 8 C0.67 8 0.34 8 0 8 C0 5.36 0 2.72 0 0 Z " fill="#7E90C2" transform="translate(325,698)"/>
<path d="M0 0 C0.33 0 0.66 0 1 0 C1 2.31 1 4.62 1 7 C0.67 7 0.34 7 0 7 C0 4.69 0 2.38 0 0 Z " fill="#7E90C2" transform="translate(325,710)"/>
<path d="M0 0 C0.33 0 0.66 0 1 0 C1 2.31 1 4.62 1 7 C0.67 7 0.34 7 0 7 C0 4.69 0 2.38 0 0 Z " fill="#7E90C2" transform="translate(325,622)"/>
<path d="M0 0 C2.31 0 4.62 0 7 0 C7 0.33 7 0.66 7 1 C4.69 1 2.38 1 0 1 C0 0.67 0 0.34 0 0 Z " fill="#7E90C2" transform="translate(369,596)"/>
<path d="M0 0 C0.33 0 0.66 0 1 0 C1 2.31 1 4.62 1 7 C0.67 7 0.34 7 0 7 C0 4.69 0 2.38 0 0 Z " fill="#000002" transform="translate(895,476)"/>
<path d="M0 0 C1.98 0 3.96 0 6 0 C6 0.33 6 0.66 6 1 C4.02 1 2.04 1 0 1 C0 0.67 0 0.34 0 0 Z " fill="#7E90C2" transform="translate(507,596)"/>
<path d="M0 0 C0.33 0 0.66 0 1 0 C1 1.98 1 3.96 1 6 C0.67 6 0.34 6 0 6 C0 4.02 0 2.04 0 0 Z " fill="#7E90C2" transform="translate(325,306)"/>
<path d="M0 0 C0.33 0 0.66 0 1 0 C1 1.65 1 3.3 1 5 C0.67 5 0.34 5 0 5 C0 3.35 0 1.7 0 0 Z " fill="#7E90C2" transform="translate(325,381)"/>
<path d="M0 0 C1 4 1 4 1 4 Z " fill="#9AA8CE" transform="translate(325,960)"/>
<path d="M0 0 C1 4 1 4 1 4 Z " fill="#7E90C2" transform="translate(950,756)"/>
<path d="M0 0 C1 4 1 4 1 4 Z " fill="#7E90C2" transform="translate(325,615)"/>
<path d="M0 0 C4 1 4 1 4 1 Z " fill="#7E90C2" transform="translate(515,596)"/>
<path d="M0 0 C4 1 4 1 4 1 Z " fill="#7E90C2" transform="translate(501,596)"/>
<path d="M0 0 C4 1 4 1 4 1 Z " fill="#7E90C2" transform="translate(488,596)"/>
<path d="M0 0 C4 1 4 1 4 1 Z " fill="#7E90C2" transform="translate(483,596)"/>
<path d="M0 0 C0 3 0 3 0 3 Z " fill="#7E90C2" transform="translate(883,557)"/>
<path d="M0 0 C0.99 0.33 1.98 0.66 3 1 C2.01 1 1.02 1 0 1 C0 0.67 0 0.34 0 0 Z " fill="#7E90C2" transform="translate(840,557)"/>
<path d="M0 0 C3 1 3 1 3 1 Z " fill="#000002" transform="translate(329,975)"/>
<path d="M0 0 C3 1 3 1 3 1 Z " fill="#7E90C2" transform="translate(794,972)"/>
<path d="M0 0 C0.99 0.5 0.99 0.5 2 1 C1.01 1.5 1.01 1.5 0 2 C0 1.34 0 0.68 0 0 Z " fill="#2A3042" transform="translate(825,842)"/>
<path d="" fill="#7E90C2" transform="translate(0,0)"/>
<path d="M0 0 C0.66 0.66 1.32 1.32 2 2 C1.34 2 0.68 2 0 2 C0 1.34 0 0.68 0 0 Z " fill="#7E90C2" transform="translate(644,608)"/>
<path d="M0 0 C3 1 3 1 3 1 Z " fill="#7E90C2" transform="translate(493,596)"/>
<path d="M0 0 C3 1 3 1 3 1 Z " fill="#7E90C2" transform="translate(332,596)"/>
<path d="M0 0 C0.66 0.66 1.32 1.32 2 2 C1.34 2 0.68 2 0 2 C0 1.34 0 0.68 0 0 Z " fill="#7E90C2" transform="translate(480,503)"/>
<path d="M0 0 C0.66 0.66 1.32 1.32 2 2 C1.34 2 0.68 2 0 2 C0 1.34 0 0.68 0 0 Z " fill="#7E90C2" transform="translate(416,462)"/>
<path d="M0 0 C3 1 3 1 3 1 Z " fill="#000002" transform="translate(713,406)"/>
<path d="M0 0 C2 1 2 1 2 1 Z " fill="#000002" transform="translate(818,967)"/>
<path d="" fill="#3F4862" transform="translate(0,0)"/>
<path d="M0 0 C2 1 2 1 2 1 Z " fill="#3F4862" transform="translate(635,603)"/>
<path d="M0 0 C2 1 2 1 2 1 Z " fill="#7E90C2" transform="translate(498,596)"/>
<path d="M0 0 C2 1 2 1 2 1 Z " fill="#7E90C2" transform="translate(380,596)"/>
<path d="M0 0 C2 1 2 1 2 1 Z " fill="#7E90C2" transform="translate(377,596)"/>
<path d="M0 0 C2 1 2 1 2 1 Z " fill="#7E90C2" transform="translate(366,596)"/>
<path d="M0 0 C2 1 2 1 2 1 Z " fill="#7E90C2" transform="translate(363,596)"/>
<path d="M0 0 C2 1 2 1 2 1 Z " fill="#7E90C2" transform="translate(360,596)"/>
<path d="" fill="#7E90C2" transform="translate(0,0)"/>
<path d="" fill="#7E90C2" transform="translate(0,0)"/>
<path d="" fill="#000002" transform="translate(0,0)"/>
<path d="M0 0 C2 1 2 1 2 1 Z " fill="#3F4862" transform="translate(755,421)"/>
<path d="M0 0 C2 1 2 1 2 1 Z " fill="#7E90C2" transform="translate(743,414)"/>
<path d="" fill="#000002" transform="translate(0,0)"/>
<path d="" fill="#7E90C2" transform="translate(0,0)"/>
<path d="" fill="#7E90C2" transform="translate(0,0)"/>
<path d="" fill="#000002" transform="translate(0,0)"/>
<path d="" fill="#000002" transform="translate(0,0)"/>
<path d="" fill="#000002" transform="translate(0,0)"/>
<path d="" fill="#000002" transform="translate(0,0)"/>
<path d="" fill="#000002" transform="translate(0,0)"/>
<path d="" fill="#000002" transform="translate(0,0)"/>
<path d="" fill="#000002" transform="translate(0,0)"/>
<path d="" fill="#7E90C2" transform="translate(0,0)"/>
<path d="" fill="#7E90C2" transform="translate(0,0)"/>
<path d="" fill="#7E90C2" transform="translate(0,0)"/>
<path d="" fill="#000002" transform="translate(0,0)"/>
<path d="" fill="#7E90C2" transform="translate(0,0)"/>
<path d="" fill="#7E90C2" transform="translate(0,0)"/>
<path d="" fill="#7E90C2" transform="translate(0,0)"/>
<path d="" fill="#7E90C2" transform="translate(0,0)"/>
<path d="" fill="#000002" transform="translate(0,0)"/>
<path d="" fill="#000002" transform="translate(0,0)"/>
<path d="" fill="#000002" transform="translate(0,0)"/>
<path d="" fill="#000002" transform="translate(0,0)"/>
<path d="" fill="#7E90C2" transform="translate(0,0)"/>
<path d="" fill="#000002" transform="translate(0,0)"/>
<path d="" fill="#000002" transform="translate(0,0)"/>
<path d="" fill="#000002" transform="translate(0,0)"/>
<path d="" fill="#000002" transform="translate(0,0)"/>
<path d="" fill="#000002" transform="translate(0,0)"/>
<path d="" fill="#000002" transform="translate(0,0)"/>
<path d="" fill="#000002" transform="translate(0,0)"/>
<path d="" fill="#7E90C2" transform="translate(0,0)"/>
<path d="" fill="#000002" transform="translate(0,0)"/>
<path d="" fill="#7E90C2" transform="translate(0,0)"/>
<path d="" fill="#7E90C2" transform="translate(0,0)"/>
<path d="" fill="#7E90C2" transform="translate(0,0)"/>
<path d="" fill="#000002" transform="translate(0,0)"/>
<path d="" fill="#000002" transform="translate(0,0)"/>
<path d="" fill="#000002" transform="translate(0,0)"/>
<path d="" fill="#000002" transform="translate(0,0)"/>
<path d="" fill="#000002" transform="translate(0,0)"/>
<path d="" fill="#000002" transform="translate(0,0)"/>
<path d="" fill="#000002" transform="translate(0,0)"/>
<path d="" fill="#7E90C2" transform="translate(0,0)"/>
<path d="" fill="#7E90C2" transform="translate(0,0)"/>
<path d="" fill="#000002" transform="translate(0,0)"/>
<path d="" fill="#000002" transform="translate(0,0)"/>
<path d="" fill="#000002" transform="translate(0,0)"/>
<path d="" fill="#000002" transform="translate(0,0)"/>
<path d="" fill="#000002" transform="translate(0,0)"/>
<path d="" fill="#7E90C2" transform="translate(0,0)"/>
<path d="" fill="#000002" transform="translate(0,0)"/>
<path d="" fill="#000002" transform="translate(0,0)"/>
<path d="" fill="#000002" transform="translate(0,0)"/>
<path d="" fill="#7E90C2" transform="translate(0,0)"/>
<path d="" fill="#000002" transform="translate(0,0)"/>
<path d="" fill="#000002" transform="translate(0,0)"/>
<path d="" fill="#7E90C2" transform="translate(0,0)"/>
<path d="" fill="#000002" transform="translate(0,0)"/>
<path d="" fill="#000002" transform="translate(0,0)"/>
<path d="" fill="#000002" transform="translate(0,0)"/>
<path d="" fill="#7E90C2" transform="translate(0,0)"/>
<path d="" fill="#7E90C2" transform="translate(0,0)"/>
<path d="" fill="#000002" transform="translate(0,0)"/>
<path d="" fill="#000002" transform="translate(0,0)"/>
<path d="" fill="#7E90C2" transform="translate(0,0)"/>
</svg>
