<?xml version="1.0" encoding="UTF-8"?>
<svg version="1.1" xmlns="http://www.w3.org/2000/svg" width="852" height="273">
<path d="M0 0 C7.92147512 6.60330187 13.20611323 15.28413875 17.875 24.375 C20.56937548 21.07661068 23.03436007 17.70137848 25.4375 14.1875 C35.63727904 0.14624573 48.52709274 -7.87554688 65.1171875 -12.2109375 C83.11573463 -14.91326894 102.3753932 -12.4182181 117.45703125 -1.80859375 C134.2919394 11.08891459 142.69945167 29.62665381 145.875 50.375 C146.78570161 58.84757257 147.01443141 67.24712668 146.98852539 75.76269531 C146.98867142 77.04216537 146.98881744 78.32163544 146.9889679 79.63987732 C146.98925182 83.10807886 146.98342123 86.57624497 146.97639394 90.04443836 C146.97009234 93.68390022 146.96955126 97.32336312 146.96836853 100.96282959 C146.96527511 107.83667694 146.95708885 114.71050816 146.94701904 121.58434844 C146.93579572 129.41760724 146.93033186 137.25086686 146.92532361 145.08413172 C146.91490433 161.18109871 146.89658392 177.27804352 146.875 193.375 C133.345 193.375 119.815 193.375 105.875 193.375 C105.85518066 189.48928223 105.83536133 185.60356445 105.81494141 181.60009766 C105.74797239 168.74781847 105.67043169 155.89562119 105.58747292 143.04343605 C105.53744257 135.25277272 105.49099891 127.46211941 105.453125 119.67138672 C105.42008836 112.87759134 105.38019351 106.08387597 105.33220994 99.29016912 C105.30706043 95.69604011 105.28524572 92.10196339 105.27165604 88.50777054 C105.25632206 84.48634683 105.22567053 80.46517473 105.19384766 76.44384766 C105.19168747 75.26420441 105.18952728 74.08456116 105.18730164 72.86917114 C105.04995347 59.24215146 102.82108255 46.52761658 93.1484375 36.3515625 C82.91147706 27.45138727 69.93369902 26.52126983 56.99853516 27.1796875 C49.01960945 27.91355052 41.46960758 31.66997254 35.875 37.375 C27.82041536 47.79104241 26.42757583 59.19168743 26.44262695 72.01635742 C26.4324353 73.33469574 26.42224365 74.65303406 26.41174316 76.01132202 C26.3843958 79.5911576 26.37491934 83.17083439 26.36888909 86.75076079 C26.35944679 90.50507134 26.33323914 94.25926595 26.30888367 98.01350403 C26.26537491 105.10693271 26.23673237 112.20033868 26.21356028 119.29385978 C26.18642435 127.37625332 26.14251837 135.45852932 26.09727156 143.5408386 C26.00464926 160.15217825 25.93507954 176.76350592 25.875 193.375 C12.345 193.375 -1.185 193.375 -15.125 193.375 C-15.14481934 189.5603418 -15.16463867 185.74568359 -15.18505859 181.81542969 C-15.25208025 169.1866816 -15.32962079 156.55801626 -15.41252708 143.92936325 C-15.46251903 136.27552003 -15.50896275 128.62168681 -15.546875 120.96777344 C-15.57995198 114.29188561 -15.61986823 107.61607855 -15.66779006 100.9402802 C-15.69290002 97.40980376 -15.71472578 93.87937982 -15.72834396 90.34883881 C-15.74372407 86.39489741 -15.77438259 82.44114987 -15.80615234 78.48730469 C-15.80831253 77.33355347 -15.81047272 76.17980225 -15.81269836 74.99108887 C-15.94875859 61.66344636 -17.40821589 46.48838754 -27.125 36.375 C-38.10365674 27.13898719 -50.34752495 26.29188544 -64.125 27.375 C-73.34986665 28.68970784 -80.38341627 32.63341627 -86.9375 39.1875 C-91.6291526 46.02390807 -94.23044279 52.80172481 -94.28321838 61.09503174 C-94.2930072 62.26168365 -94.30279602 63.42833557 -94.31288147 64.63034058 C-94.31863693 65.90636139 -94.3243924 67.1823822 -94.33032227 68.49707031 C-94.33990469 69.85725194 -94.34991499 71.21743062 -94.36032104 72.5776062 C-94.38733668 76.26731538 -94.40836431 79.95703731 -94.42832303 83.6467905 C-94.45020321 87.50386943 -94.47758195 91.36090921 -94.50437927 95.21795654 C-94.55427869 102.52057436 -94.59922772 109.82321394 -94.64240164 117.12587428 C-94.69179753 125.44022402 -94.74670694 133.75453449 -94.80208123 142.06884623 C-94.91585904 159.17086257 -95.02197938 176.27291496 -95.125 193.375 C-108.655 193.375 -122.185 193.375 -136.125 193.375 C-136.125 126.385 -136.125 59.395 -136.125 -9.625 C-122.595 -9.625 -109.065 -9.625 -95.125 -9.625 C-94.63 2.255 -94.63 2.255 -94.125 14.375 C-92.805 12.869375 -91.485 11.36375 -90.125 9.8125 C-66.70861286 -15.9636781 -28.6644861 -21.28120938 0 0 Z " fill="#F8F8F8" transform="translate(490.125,50.625)"/>
<path d="M0 0 C-1.6517945 3.91711267 -4.30386399 6.89129173 -7.0625 10.0625 C-8.05428727 11.2153706 -9.04515757 12.36903063 -10.03515625 13.5234375 C-10.53160645 14.1019043 -11.02805664 14.68037109 -11.53955078 15.27636719 C-14.47588135 18.74184593 -17.29530073 22.3027397 -20.125 25.85546875 C-22 28 -22 28 -25 30 C-26.69189453 29.03900391 -26.69189453 29.03900391 -28.41796875 28.05859375 C-48.75359299 16.77317526 -69.07581593 9.57991107 -92.5 11.625 C-93.71925171 11.72832642 -93.71925171 11.72832642 -94.96313477 11.83374023 C-100.87685372 12.4990412 -105.70656024 14.3281237 -111 17 C-112.0725 17.53625 -113.145 18.0725 -114.25 18.625 C-119.08812974 22.80338477 -121.53590644 27.78766546 -122.44921875 34.109375 C-122.61188925 38.61927444 -122.29637019 42.18498197 -120.75 46.4375 C-114.54625028 52.21826678 -106.8853126 54.08681463 -98.625 55.0546875 C-97.93460632 55.13610992 -97.24421265 55.21753235 -96.53289795 55.30142212 C-90.20655348 56.02510879 -83.86592473 56.543816 -77.51831055 57.03857422 C-27.19961966 60.96381113 -27.19961966 60.96381113 -10.25 78.75 C1.27750555 92.67906921 2.42097962 111.79302515 0.80517578 129.08496094 C-0.92989319 143.39839288 -7.19856142 156.37188063 -18 166 C-21.51420451 168.65911617 -25.13224918 170.89326422 -29 173 C-29.84046875 173.46148437 -30.6809375 173.92296875 -31.546875 174.3984375 C-44.22755159 180.73877579 -59.12410061 183.14576365 -73.19921875 183.16796875 C-74.33457817 183.17296135 -74.33457817 183.17296135 -75.49287415 183.17805481 C-77.08533121 183.18308389 -78.67779867 183.18546439 -80.27026367 183.18530273 C-82.66408359 183.18747871 -85.05743379 183.20564859 -87.45117188 183.22460938 C-115.54266431 183.32928776 -142.69633709 175.77967269 -165.25 158.75 C-165.79922119 158.33790283 -166.34844238 157.92580566 -166.91430664 157.5012207 C-169.82172661 155.22574828 -171.48871461 153.33676368 -173 150 C-172.62302979 149.54262451 -172.24605957 149.08524902 -171.85766602 148.61401367 C-164.55676218 139.75490202 -157.26007361 130.89262984 -150 122 C-145.36831183 123.60327667 -141.57628885 126.09789179 -137.5 128.75 C-123.04714031 137.91526822 -106.41864062 145.55902176 -89 146 C-88.00806641 146.05800781 -88.00806641 146.05800781 -86.99609375 146.1171875 C-72.64668269 146.60730021 -57.82585103 144.49035458 -46 136 C-45.34 136 -44.68 136 -44 136 C-43.31225595 134.67741528 -42.65288627 133.34013497 -42 132 C-41.46375 131.030625 -40.9275 130.06125 -40.375 129.0625 C-37.68019997 122.71047135 -38.09402572 114.98438586 -40.0625 108.5 C-46.5756514 100.09593367 -56.62640565 98.06502489 -66.7086792 96.60876465 C-73.97715096 95.7257124 -81.26985685 95.08371118 -88.5625 94.4375 C-136.95292239 90.07712375 -136.95292239 90.07712375 -151.75 74.125 C-162.60165767 61.02902222 -163.14080943 44.30648509 -162 28 C-160.56448959 15.30524532 -156.43095936 4.57414029 -148 -5 C-147.4534375 -5.6290625 -146.906875 -6.258125 -146.34375 -6.90625 C-111.96594586 -43.8786054 -34.99958494 -27.88102529 0 0 Z " fill="#F7F7F7" transform="translate(837,64)"/>
<path d="M0 0 C4.9434589 4.05732477 9.12083451 8.78694819 13.18359375 13.7109375 C7.82070823 20.41454441 1.56380764 26.00893532 -4.81640625 31.7109375 C-5.61304688 32.43410156 -6.4096875 33.15726563 -7.23046875 33.90234375 C-10.32359012 36.67688521 -13.01498863 38.96862109 -16.81640625 40.7109375 C-17.62078125 39.875625 -17.62078125 39.875625 -18.44140625 39.0234375 C-23.56715701 34.03257492 -28.55948811 30.45246775 -34.94140625 27.2734375 C-35.59753906 26.94408203 -36.25367188 26.61472656 -36.9296875 26.27539062 C-49.65005492 20.19449642 -65.38041966 19.53172625 -78.94140625 23.2109375 C-89.39230219 27.08264247 -97.65747314 33.78666835 -102.81640625 43.7109375 C-108.42385145 57.18938377 -108.02791939 71.59841195 -108.00390625 85.9609375 C-108.00250137 87.0491127 -108.00250137 87.0491127 -108.00106812 88.15927124 C-107.99354559 116.6927919 -107.99354559 116.6927919 -93.81640625 140.7109375 C-83.33894896 149.73487471 -69.73999278 152.41435421 -56.234375 151.45703125 C-40.52224939 149.56749068 -27.3824965 142.6163913 -16.81640625 130.7109375 C-13.22962539 132.22763632 -10.97307229 134.33548983 -8.26171875 137.10546875 C-6.96814453 138.41547852 -6.96814453 138.41547852 -5.6484375 139.75195312 C-4.75511719 140.66654297 -3.86179687 141.58113281 -2.94140625 142.5234375 C4.79984868 150.46877946 4.79984868 150.46877946 13.18359375 157.7109375 C7.5151441 171.10909123 -8.05965237 179.30603192 -20.81640625 184.7109375 C-34.01796848 189.44332121 -46.76040098 190.94878857 -60.75390625 190.9609375 C-61.79644562 190.96194962 -61.79644562 190.96194962 -62.86004639 190.96298218 C-87.6249844 190.92473048 -109.01382255 184.65453122 -127.44140625 167.4609375 C-131.68803059 163.05739402 -134.77037823 157.9888478 -137.81640625 152.7109375 C-138.35523438 151.7828125 -138.8940625 150.8546875 -139.44921875 149.8984375 C-147.39129925 135.21157507 -148.96429366 119.36745119 -149.01953125 102.9296875 C-149.02235863 102.27297562 -149.025186 101.61626373 -149.02809906 100.93965149 C-149.0430197 97.45878714 -149.05229204 93.97796342 -149.05664062 90.49707031 C-149.06101209 87.65383986 -149.07486126 84.8109151 -149.09765625 81.96777344 C-149.33413539 51.86920434 -146.65060433 25.49431952 -125.06640625 2.5859375 C-93.86871054 -27.64997954 -33.20385371 -25.67348501 0 0 Z " fill="#F7F7F7" transform="translate(313.81640625,56.2890625)"/>
<path d="M0 0 C1.00740234 0.86431641 1.00740234 0.86431641 2.03515625 1.74609375 C0.76616357 5.22282241 -0.69160845 8.00844253 -2.90625 10.96875 C-3.48592529 11.74951904 -4.06560059 12.53028809 -4.6628418 13.3347168 C-5.27812744 14.15109619 -5.89341309 14.96747559 -6.52734375 15.80859375 C-7.46864136 17.06700073 -7.46864136 17.06700073 -8.42895508 18.35083008 C-9.68752168 20.03306298 -10.94782964 21.71399463 -12.20996094 23.39355469 C-13.75715547 25.46767357 -15.27846875 27.55654193 -16.78515625 29.66015625 C-17.39508423 30.50308228 -17.39508423 30.50308228 -18.01733398 31.36303711 C-19.08118062 32.8351226 -20.13848546 34.31192948 -21.1953125 35.7890625 C-21.77925781 36.43488281 -22.36320312 37.08070312 -22.96484375 37.74609375 C-26.48662382 37.74609375 -26.68949213 37.33846586 -29.08984375 34.99609375 C-39.01229755 26.08484543 -50.9453796 26.09098274 -63.57177734 26.55810547 C-72.33822507 27.24675725 -80.16575125 31.55380183 -86.08984375 37.93359375 C-95.26764367 49.32175386 -95.25726017 64.05656063 -95.28369141 78.08544922 C-95.29875984 79.96120132 -95.29875984 79.96120132 -95.31413269 81.87484741 C-95.33945355 85.25411153 -95.35647152 88.63321317 -95.36956072 92.01253271 C-95.38535384 95.56261129 -95.41209098 99.11260845 -95.43759155 102.66262817 C-95.48409642 109.36283191 -95.52097596 116.06305146 -95.55426443 122.76333249 C-95.5926877 130.40080564 -95.64204381 138.03819644 -95.69224858 145.67559981 C-95.79514684 161.36571054 -95.88309953 177.05585638 -95.96484375 192.74609375 C-109.16484375 192.74609375 -122.36484375 192.74609375 -135.96484375 192.74609375 C-135.96484375 125.75609375 -135.96484375 58.76609375 -135.96484375 -10.25390625 C-122.76484375 -10.25390625 -109.56484375 -10.25390625 -95.96484375 -10.25390625 C-95.63484375 -1.67390625 -95.30484375 6.90609375 -94.96484375 15.74609375 C-92.65484375 12.77609375 -90.34484375 9.80609375 -87.96484375 6.74609375 C-65.77215502 -18.55357141 -26.22345044 -19.93535034 0 0 Z " fill="#FAFAFA" transform="translate(155.96484375,51.25390625)"/>
<path d="M0 0 C2 1 2 1 3 3 C3.51981506 6.56444611 3.63102777 9.73794446 2 13 C-1.26205554 14.63102777 -4.43555389 14.51981506 -8 14 C-10 13 -10 13 -11 11 C-11.51981506 7.43555389 -11.63102777 4.26205554 -10 1 C-6.73794446 -0.63102777 -3.56444611 -0.51981506 0 0 Z " fill="#DFDFDF" transform="translate(81,162)"/>
<path d="M0 0 C0.66 0.33 1.32 0.66 2 1 C-2.62 5.62 -7.24 10.24 -12 15 C-12.66 14.67 -13.32 14.34 -14 14 C-12.60919892 12.41224451 -11.21211596 10.82999061 -9.8125 9.25 C-8.64654297 7.92742188 -8.64654297 7.92742188 -7.45703125 6.578125 C-5.11544754 4.12113732 -2.69841735 2.05137234 0 0 Z " fill="#9D9D9D" transform="translate(531,49)"/>
<path d="M0 0 C2.475 0.99 2.475 0.99 5 2 C4.4225 2.0825 3.845 2.165 3.25 2.25 C0.3840696 3.20531013 -0.9990764 4.78469173 -3 7 C-3.66 6.67 -4.32 6.34 -5 6 C-3.35 4.02 -1.7 2.04 0 0 Z " fill="#979797" transform="translate(687,186)"/>
</svg>
